<?xml version="1.0" encoding="UTF-8" standalone="no"?>
<svg
   height="11.672305"
   width="19.26"
   viewBox="0 0 19.26 11.672305"
   version="1.1"
   id="svg3"
   xmlns="http://www.w3.org/2000/svg"
   xmlns:svg="http://www.w3.org/2000/svg">
  <defs
     id="defs3" />
  <title
     id="title1">OOjs_UI_icon_academic</title>
  <path
     d="M 9.76,7.0023044 H 9.63 9.5 l -4.87,-1.37 v 3.37 c 0,1.1000006 2.24,2.0000006 5,2.0000006 2.76,0 5,-0.9 5,-2.0000006 v -3.37 z"
     id="path1"
     style="fill:#7c7c7c;fill-opacity:1" />
  <path
     d="m 18.76,2.5223044 -9,-2.49999993 a 0.39,0.39 0 0 0 -0.26,0 l -9,2.49999993 a 0.5,0.5 0 0 0 0,1 l 9,2.5 0.13,-0.02 h 0.13 l 9,-2.5 a 0.5,0.5 0 0 0 0,-1 z"
     id="path2"
     style="fill:#7c7c7c;fill-opacity:1" />
  <path
     d="m 17.13,7.5023044 a 1,1 0 0 0 -0.5,-0.85 v -3.65 h -1 v 3.65 a 1,1 0 0 0 -0.5,0.85 1,1 0 0 0 0.45,0.81 l -0.45,2.6900006 c 0,0.37 0.45,0.67 1,0.67 0.55,0 1,-0.3 1,-0.67 L 16.68,8.3123044 a 1,1 0 0 0 0.45,-0.81 z"
     id="path3"
     style="fill:#7c7c7c;fill-opacity:1" />
</svg>
