<?xml version="1.0" encoding="UTF-8" standalone="no"?>
<svg
   height="11.671888"
   width="19.259766"
   viewBox="0 0 19.259765 11.671888"
   version="1.1"
   id="svg3"
   xmlns="http://www.w3.org/2000/svg"
   xmlns:svg="http://www.w3.org/2000/svg">
  <defs
     id="defs3" />
  <title
     id="title1">OOjs_UI_icon_academic</title>
  <path
     id="path1"
     fill="white"
     d="M 9.6308594,1.2847785e-5 A 0.39,0.39 0 0 0 9.5,0.02149723 l -9,2.49999997 a 0.5,0.5 0 0 0 0,1 l 9,2.5 0.1308594,-0.019531 H 9.7597656 L 15.630859,4.3711066 v 2.28125 a 1,1 0 0 0 -0.5,0.8496093 1,1 0 0 0 0.449219,0.8105469 l -0.449219,2.6894532 c 0,0.37 0.450001,0.669922 1,0.669922 0.55,0 1,-0.299922 1,-0.669922 L 16.679688,8.3125128 a 1,1 0 0 0 0.451171,-0.8105469 1,1 0 0 0 -0.5,-0.8496093 V 4.0937628 l 2.128907,-0.5917969 a 0.5,0.5 0 0 0 0,-1 v 0.019531 L 9.7597656,0.02149723 A 0.39,0.39 0 0 0 9.6308594,1.2847785e-5 Z m -5,5.632812452215 v 3.3691406 c 0,1.1000001 2.2400027,2.0000001 5,2.0000001 2.7599976,0 4.9999996,-0.9 4.9999996,-2.0000001 V 5.6328253 L 9.7597656,7.0019659 H 9.6308594 9.5 Z" />
</svg>
